{"title":"Something Borrowed 2011 TS XViD - DTRG - SAFCuk009","uid":6388160,"size":1452226674,"categoryP":"video","categoryS":"movies","magnet":"?xt=urn:btih:42fed8022e561c2a07fd1845716b5d9bcca5f3a0&amp;dn=Something+Borrowed+2011+TS+XViD+-+DTRG+-+SAFCuk009&amp;tr=udp%3A%2F%2Ftracker.openbittorrent.com%3A80&amp;tr=udp%3A%2F%2Fopen.demonii.com%3A1337&amp;tr=udp%3A%2F%2Ftracker.coppersurfer.tk%3A6969&amp;tr=udp%3A%2F%2Fexodus.desync.com%3A6969","seeders":1,"leechers":0,"uploader":"SAFCukO09","files":3,"time":1305273373,"description":"Format : AVI\nFormat/Info : Audio Video Interleave\nFile size : 1.35 GiB\nDuration : 1h 47mn\nOverall bit rate : 1 796 Kbps\nWriting application : VirtualDubMod 1.5.10.3 | www.virtualdub-fr.org || (build 2550/release)\nWriting library : VirtualDubMod build 2550/release\n\nVideo\nID : 0\nFormat : MPEG-4 Visual\nFormat profile : Advanced Simple@L5\nFormat settings, BVOP : Yes\nFormat settings, QPel : No\nFormat settings, GMC : No warppoints\nFormat settings, Matrix : Custom\nCodec ID : XVID\nCodec ID/Hint : XviD\nDuration : 1h 47mn\nBit rate : 1 658 Kbps\nWidth : 720 pixels\nHeight : 384 pixels\nDisplay aspect ratio : 1.875\nFrame rate : 25.000 fps\nColor space : YUV\nChroma subsampling : 4:2:0\nBit depth : 8 bits\nScan type : Progressive\nBits/(Pixel*Frame) : 0.240\nStream size : 1.25 GiB (92%)\nWriting library : XviD 1.2.1 (UTC 2008-12-04)\n\nAudio\nID : 1\nFormat : MPEG Audio\nFormat version : Version 1\nFormat profile : Layer 3\nCodec ID : 55\nCodec ID/Hint : MP3\nDuration : 1h 47mn\nBit rate mode : Constant\nBit rate : 128 Kbps\nChannel(s) : 2 channels\nSampling rate : 44.1 KHz\nStream size : 98.7 MiB (7%)\nAlignment : Split accross interleaves\nInterleave, duration : 40 ms (1.00 video frame)\nInterleave, preload duration : 500 ms\n\n\n\n &lt;a href=&quot;\nhttp://www.imdb.com/title/tt0491152/&quot; rel=&quot;nofollow&quot; target=&quot;_NEW&quot;&gt;\nhttp://www.imdb.com/title/tt0491152/&lt;/a&gt;\n\n\n\n\n\n\n\nUsers: 5.4/10 (992 votes) 24 reviews | Critics: 32 reviews Metascore: 35/100 (based on 29 reviews from Metacritic.com)\n\nFriendships are tested and secrets come to the surface when terminally single Rachel falls for Dex, her best friend Darcy's fiancÃƒÂ©.\nDirector:\nLuke Greenfield\nWriters:\nJennie Snyder (screenplay), Emily Giffin (novel)\nStars:\nGinnifer Goodwin, Kate Hudson and Colin Egglesfield\n\n\n\n\n\n\n\n\n\n\n\n\n\n\n\nSOURCES:\n\n\n\nVIDEO: russians (IMAGiNE)....:Thanks\n\nAUDIO:IMAGiNE ..........................Thanks\n\nSlight sharpen,slight saturation levels ,contrast/brightness\n\nVideo has a pulse/flicker which you'll see in the sample so down it first and dont moan later ............Thanks again to IMAGiNE for another release.....This is same video as my cam release all i did was demux the direct line and put it with this video\n\nEnjoy\n\n\n\n\nGreetz to Imagine ,Flawl3ss,DiLLoN,BDK,NOiR,TOXiCiNK,THC,Ez,Rx,Boobyblue,TaRiQ786,LKRG","torrent":{"xt":"urn:btih:42fed8022e561c2a07fd1845716b5d9bcca5f3a0","amp;dn":"Something+Borrowed+2011+TS+XViD+-+DTRG+-+SAFCuk009","amp;tr":["udp%3A%2F%2Ftracker.openbittorrent.com%3A80","udp%3A%2F%2Fopen.demonii.com%3A1337","udp%3A%2F%2Ftracker.coppersurfer.tk%3A6969","udp%3A%2F%2Fexodus.desync.com%3A6969"],"infoHash":"42fed8022e561c2a07fd1845716b5d9bcca5f3a0","infoHashBuffer":{"type":"Buffer","data":[66,254,216,2,46,86,28,42,7,253,24,69,113,107,93,155,204,165,243,160]},"announce":[],"urlList":[]}}